<mxfile host="app.diagrams.net" agent="Mozilla/5.0 (Macintosh; Intel Mac OS X 10_15_7) AppleWebKit/537.36 (KHTML, like Gecko) Chrome/131.0.0.0 Safari/537.36 Edg/131.0.0.0" version="25.0.3">
  <diagram name="Page-1" id="bkX10E6zblEP7POKMJXw">
    <mxGraphModel dx="1768" dy="1089" grid="1" gridSize="10" guides="1" tooltips="1" connect="1" arrows="1" fold="1" page="1" pageScale="1" pageWidth="850" pageHeight="1100" math="0" shadow="0">
      <root>
        <mxCell id="0" />
        <mxCell id="1" parent="0" />
        <mxCell id="NpWbz43RdM9-YawIMZhB-93" value="" style="rounded=0;whiteSpace=wrap;html=1;fillColor=#f5f5f5;strokeColor=#666666;fontColor=#333333;" vertex="1" parent="1">
          <mxGeometry x="180" y="220" width="490" height="800" as="geometry" />
        </mxCell>
        <mxCell id="NpWbz43RdM9-YawIMZhB-90" value="" style="rounded=1;whiteSpace=wrap;html=1;fillColor=none;dashed=1;" vertex="1" parent="1">
          <mxGeometry x="210" y="856" width="430" height="143" as="geometry" />
        </mxCell>
        <mxCell id="NpWbz43RdM9-YawIMZhB-100" style="edgeStyle=orthogonalEdgeStyle;rounded=0;orthogonalLoop=1;jettySize=auto;html=1;exitX=0.5;exitY=1;exitDx=0;exitDy=0;entryX=0.5;entryY=0;entryDx=0;entryDy=0;" edge="1" parent="1" source="NpWbz43RdM9-YawIMZhB-83" target="NpWbz43RdM9-YawIMZhB-84">
          <mxGeometry relative="1" as="geometry" />
        </mxCell>
        <mxCell id="NpWbz43RdM9-YawIMZhB-83" value="" style="rounded=1;whiteSpace=wrap;html=1;fillColor=none;dashed=1;" vertex="1" parent="1">
          <mxGeometry x="210" y="248" width="430" height="61" as="geometry" />
        </mxCell>
        <mxCell id="NpWbz43RdM9-YawIMZhB-118" style="edgeStyle=orthogonalEdgeStyle;rounded=0;orthogonalLoop=1;jettySize=auto;html=1;exitX=0.5;exitY=1;exitDx=0;exitDy=0;entryX=0.5;entryY=0;entryDx=0;entryDy=0;" edge="1" parent="1" source="NpWbz43RdM9-YawIMZhB-84" target="NpWbz43RdM9-YawIMZhB-85">
          <mxGeometry relative="1" as="geometry" />
        </mxCell>
        <mxCell id="NpWbz43RdM9-YawIMZhB-84" value="" style="rounded=1;whiteSpace=wrap;html=1;fillColor=none;dashed=1;" vertex="1" parent="1">
          <mxGeometry x="210" y="329" width="430" height="90" as="geometry" />
        </mxCell>
        <mxCell id="NpWbz43RdM9-YawIMZhB-122" value="" style="edgeStyle=orthogonalEdgeStyle;rounded=0;orthogonalLoop=1;jettySize=auto;html=1;" edge="1" parent="1" source="NpWbz43RdM9-YawIMZhB-85" target="NpWbz43RdM9-YawIMZhB-70">
          <mxGeometry relative="1" as="geometry" />
        </mxCell>
        <mxCell id="NpWbz43RdM9-YawIMZhB-85" value="" style="rounded=1;whiteSpace=wrap;html=1;fillColor=none;dashed=1;" vertex="1" parent="1">
          <mxGeometry x="210" y="438" width="430" height="110" as="geometry" />
        </mxCell>
        <mxCell id="NpWbz43RdM9-YawIMZhB-123" value="" style="edgeStyle=orthogonalEdgeStyle;rounded=0;orthogonalLoop=1;jettySize=auto;html=1;" edge="1" parent="1" source="NpWbz43RdM9-YawIMZhB-87" target="NpWbz43RdM9-YawIMZhB-111">
          <mxGeometry relative="1" as="geometry" />
        </mxCell>
        <mxCell id="NpWbz43RdM9-YawIMZhB-87" value="" style="rounded=1;whiteSpace=wrap;html=1;fillColor=none;dashed=1;" vertex="1" parent="1">
          <mxGeometry x="210" y="616" width="430" height="114" as="geometry" />
        </mxCell>
        <mxCell id="NpWbz43RdM9-YawIMZhB-78" value="" style="edgeStyle=orthogonalEdgeStyle;rounded=0;orthogonalLoop=1;jettySize=auto;html=1;exitX=0.5;exitY=1;exitDx=0;exitDy=0;" edge="1" parent="1" source="NpWbz43RdM9-YawIMZhB-90" target="NpWbz43RdM9-YawIMZhB-51">
          <mxGeometry relative="1" as="geometry" />
        </mxCell>
        <mxCell id="NpWbz43RdM9-YawIMZhB-50" value="Model Context" style="shape=document;whiteSpace=wrap;html=1;boundedLbl=1;fillColor=#dae8fc;strokeColor=#6c8ebf;" vertex="1" parent="1">
          <mxGeometry x="230" y="910" width="120" height="80" as="geometry" />
        </mxCell>
        <mxCell id="NpWbz43RdM9-YawIMZhB-35" value="Model Context" style="shape=document;whiteSpace=wrap;html=1;boundedLbl=1;fillColor=#dae8fc;strokeColor=#6c8ebf;" vertex="1" parent="1">
          <mxGeometry x="230" y="646" width="120" height="80" as="geometry" />
        </mxCell>
        <mxCell id="NpWbz43RdM9-YawIMZhB-16" style="edgeStyle=orthogonalEdgeStyle;rounded=0;orthogonalLoop=1;jettySize=auto;html=1;entryX=0.5;entryY=0;entryDx=0;entryDy=0;" edge="1" parent="1" source="NpWbz43RdM9-YawIMZhB-3" target="NpWbz43RdM9-YawIMZhB-12">
          <mxGeometry relative="1" as="geometry" />
        </mxCell>
        <mxCell id="NpWbz43RdM9-YawIMZhB-3" value="New Messages" style="text;html=1;align=center;verticalAlign=middle;whiteSpace=wrap;rounded=0;" vertex="1" parent="1">
          <mxGeometry x="245" y="170" width="90" height="30" as="geometry" />
        </mxCell>
        <mxCell id="NpWbz43RdM9-YawIMZhB-68" style="edgeStyle=orthogonalEdgeStyle;rounded=0;orthogonalLoop=1;jettySize=auto;html=1;exitX=0;exitY=1;exitDx=0;exitDy=-15;exitPerimeter=0;entryX=1;entryY=0.75;entryDx=0;entryDy=0;" edge="1" parent="1" source="NpWbz43RdM9-YawIMZhB-6" target="NpWbz43RdM9-YawIMZhB-19">
          <mxGeometry relative="1" as="geometry" />
        </mxCell>
        <mxCell id="NpWbz43RdM9-YawIMZhB-6" value="Memory" style="shape=cylinder3;whiteSpace=wrap;html=1;boundedLbl=1;backgroundOutline=1;size=15;fillColor=#e1d5e7;strokeColor=#9673a6;" vertex="1" parent="1">
          <mxGeometry x="520" y="340" width="90" height="69" as="geometry" />
        </mxCell>
        <mxCell id="NpWbz43RdM9-YawIMZhB-30" style="edgeStyle=orthogonalEdgeStyle;rounded=0;orthogonalLoop=1;jettySize=auto;html=1;exitX=0.13;exitY=0.77;exitDx=0;exitDy=0;exitPerimeter=0;entryX=1;entryY=0.75;entryDx=0;entryDy=0;" edge="1" parent="1" source="NpWbz43RdM9-YawIMZhB-10" target="NpWbz43RdM9-YawIMZhB-29">
          <mxGeometry relative="1" as="geometry" />
        </mxCell>
        <mxCell id="NpWbz43RdM9-YawIMZhB-10" value="Model Client" style="ellipse;shape=cloud;whiteSpace=wrap;html=1;fillColor=#f8cecc;strokeColor=#b85450;" vertex="1" parent="1">
          <mxGeometry x="490" y="438" width="150" height="100" as="geometry" />
        </mxCell>
        <mxCell id="NpWbz43RdM9-YawIMZhB-89" style="edgeStyle=orthogonalEdgeStyle;rounded=0;orthogonalLoop=1;jettySize=auto;html=1;exitX=0;exitY=0;exitDx=0;exitDy=60;exitPerimeter=0;entryX=1;entryY=0.75;entryDx=0;entryDy=0;" edge="1" parent="1" source="NpWbz43RdM9-YawIMZhB-11" target="NpWbz43RdM9-YawIMZhB-35">
          <mxGeometry relative="1" as="geometry" />
        </mxCell>
        <mxCell id="NpWbz43RdM9-YawIMZhB-11" value="Tools" style="shape=cube;whiteSpace=wrap;html=1;boundedLbl=1;backgroundOutline=1;darkOpacity=0.05;darkOpacity2=0.1;fillColor=#ffe6cc;strokeColor=#d79b00;" vertex="1" parent="1">
          <mxGeometry x="505" y="636" width="120" height="80" as="geometry" />
        </mxCell>
        <mxCell id="NpWbz43RdM9-YawIMZhB-12" value="Model Context" style="shape=document;whiteSpace=wrap;html=1;boundedLbl=1;fillColor=#dae8fc;strokeColor=#6c8ebf;" vertex="1" parent="1">
          <mxGeometry x="230" y="259" width="120" height="40" as="geometry" />
        </mxCell>
        <mxCell id="NpWbz43RdM9-YawIMZhB-17" value="1. Add New Messages to Context" style="text;html=1;align=center;verticalAlign=middle;whiteSpace=wrap;rounded=0;" vertex="1" parent="1">
          <mxGeometry x="370" y="263.5" width="190" height="30" as="geometry" />
        </mxCell>
        <mxCell id="NpWbz43RdM9-YawIMZhB-19" value="Model Context" style="shape=document;whiteSpace=wrap;html=1;boundedLbl=1;fillColor=#dae8fc;strokeColor=#6c8ebf;" vertex="1" parent="1">
          <mxGeometry x="230" y="349" width="120" height="60" as="geometry" />
        </mxCell>
        <mxCell id="NpWbz43RdM9-YawIMZhB-22" value="2. Update Context" style="text;html=1;align=center;verticalAlign=middle;whiteSpace=wrap;rounded=0;" vertex="1" parent="1">
          <mxGeometry x="370" y="359" width="110" height="30" as="geometry" />
        </mxCell>
        <mxCell id="NpWbz43RdM9-YawIMZhB-24" value="Model Context" style="shape=document;whiteSpace=wrap;html=1;boundedLbl=1;fillColor=#dae8fc;strokeColor=#6c8ebf;" vertex="1" parent="1">
          <mxGeometry x="230" y="349" width="120" height="40" as="geometry" />
        </mxCell>
        <mxCell id="NpWbz43RdM9-YawIMZhB-28" style="edgeStyle=orthogonalEdgeStyle;rounded=0;orthogonalLoop=1;jettySize=auto;html=1;entryX=0.25;entryY=0.25;entryDx=0;entryDy=0;entryPerimeter=0;" edge="1" parent="1" source="NpWbz43RdM9-YawIMZhB-27" target="NpWbz43RdM9-YawIMZhB-10">
          <mxGeometry relative="1" as="geometry" />
        </mxCell>
        <mxCell id="NpWbz43RdM9-YawIMZhB-31" value="3. Chat Completion" style="text;html=1;align=center;verticalAlign=middle;whiteSpace=wrap;rounded=0;" vertex="1" parent="1">
          <mxGeometry x="370" y="475" width="110" height="30" as="geometry" />
        </mxCell>
        <mxCell id="NpWbz43RdM9-YawIMZhB-32" value="Model Context" style="shape=document;whiteSpace=wrap;html=1;boundedLbl=1;fillColor=#dae8fc;strokeColor=#6c8ebf;" vertex="1" parent="1">
          <mxGeometry x="230" y="626" width="120" height="80" as="geometry" />
        </mxCell>
        <mxCell id="NpWbz43RdM9-YawIMZhB-33" value="Model Context" style="shape=document;whiteSpace=wrap;html=1;boundedLbl=1;fillColor=#dae8fc;strokeColor=#6c8ebf;" vertex="1" parent="1">
          <mxGeometry x="230" y="626" width="120" height="60" as="geometry" />
        </mxCell>
        <mxCell id="NpWbz43RdM9-YawIMZhB-34" value="Model Context" style="shape=document;whiteSpace=wrap;html=1;boundedLbl=1;fillColor=#dae8fc;strokeColor=#6c8ebf;" vertex="1" parent="1">
          <mxGeometry x="230" y="626" width="120" height="40" as="geometry" />
        </mxCell>
        <mxCell id="NpWbz43RdM9-YawIMZhB-38" value="4. Tool Execution" style="text;html=1;align=center;verticalAlign=middle;whiteSpace=wrap;rounded=0;" vertex="1" parent="1">
          <mxGeometry x="370" y="666" width="110" height="30" as="geometry" />
        </mxCell>
        <mxCell id="NpWbz43RdM9-YawIMZhB-40" style="edgeStyle=orthogonalEdgeStyle;rounded=0;orthogonalLoop=1;jettySize=auto;html=1;exitX=0.13;exitY=0.77;exitDx=0;exitDy=0;exitPerimeter=0;entryX=1;entryY=0.75;entryDx=0;entryDy=0;" edge="1" parent="1" source="NpWbz43RdM9-YawIMZhB-41" target="NpWbz43RdM9-YawIMZhB-50">
          <mxGeometry relative="1" as="geometry">
            <mxPoint x="370" y="950" as="targetPoint" />
          </mxGeometry>
        </mxCell>
        <mxCell id="NpWbz43RdM9-YawIMZhB-41" value="Model Client" style="ellipse;shape=cloud;whiteSpace=wrap;html=1;fillColor=#f8cecc;strokeColor=#b85450;" vertex="1" parent="1">
          <mxGeometry x="490" y="870" width="150" height="100" as="geometry" />
        </mxCell>
        <mxCell id="NpWbz43RdM9-YawIMZhB-44" style="edgeStyle=orthogonalEdgeStyle;rounded=0;orthogonalLoop=1;jettySize=auto;html=1;entryX=0.25;entryY=0.25;entryDx=0;entryDy=0;entryPerimeter=0;exitX=1;exitY=0.25;exitDx=0;exitDy=0;" edge="1" parent="1" source="NpWbz43RdM9-YawIMZhB-49" target="NpWbz43RdM9-YawIMZhB-41">
          <mxGeometry relative="1" as="geometry">
            <mxPoint x="370" y="910" as="sourcePoint" />
          </mxGeometry>
        </mxCell>
        <mxCell id="NpWbz43RdM9-YawIMZhB-45" value="5. Chat Completion (Reflect on Tool Use)" style="text;html=1;align=center;verticalAlign=middle;whiteSpace=wrap;rounded=0;" vertex="1" parent="1">
          <mxGeometry x="355" y="905" width="130" height="30" as="geometry" />
        </mxCell>
        <mxCell id="NpWbz43RdM9-YawIMZhB-46" value="Model Context" style="shape=document;whiteSpace=wrap;html=1;boundedLbl=1;fillColor=#dae8fc;strokeColor=#6c8ebf;" vertex="1" parent="1">
          <mxGeometry x="230" y="890" width="120" height="80" as="geometry" />
        </mxCell>
        <mxCell id="NpWbz43RdM9-YawIMZhB-47" value="Model Context" style="shape=document;whiteSpace=wrap;html=1;boundedLbl=1;fillColor=#dae8fc;strokeColor=#6c8ebf;" vertex="1" parent="1">
          <mxGeometry x="230" y="870" width="120" height="80" as="geometry" />
        </mxCell>
        <mxCell id="NpWbz43RdM9-YawIMZhB-48" value="Model Context" style="shape=document;whiteSpace=wrap;html=1;boundedLbl=1;fillColor=#dae8fc;strokeColor=#6c8ebf;" vertex="1" parent="1">
          <mxGeometry x="230" y="870" width="120" height="60" as="geometry" />
        </mxCell>
        <mxCell id="NpWbz43RdM9-YawIMZhB-49" value="Model Context" style="shape=document;whiteSpace=wrap;html=1;boundedLbl=1;fillColor=#dae8fc;strokeColor=#6c8ebf;" vertex="1" parent="1">
          <mxGeometry x="230" y="870" width="120" height="40" as="geometry" />
        </mxCell>
        <mxCell id="NpWbz43RdM9-YawIMZhB-51" value="Response&lt;div&gt;(Text)&lt;/div&gt;" style="text;html=1;align=center;verticalAlign=middle;whiteSpace=wrap;rounded=0;" vertex="1" parent="1">
          <mxGeometry x="395" y="1040" width="60" height="30" as="geometry" />
        </mxCell>
        <mxCell id="NpWbz43RdM9-YawIMZhB-53" value="Response&amp;nbsp;&lt;div&gt;(Tool Result Summary)&lt;/div&gt;" style="text;html=1;align=right;verticalAlign=middle;whiteSpace=wrap;rounded=0;" vertex="1" parent="1">
          <mxGeometry x="10" y="806" width="140" height="30" as="geometry" />
        </mxCell>
        <mxCell id="NpWbz43RdM9-YawIMZhB-58" value="Response&amp;nbsp;&lt;div&gt;&lt;span style=&quot;background-color: initial;&quot;&gt;(Text Message)&lt;/span&gt;&lt;/div&gt;" style="text;html=1;align=right;verticalAlign=middle;whiteSpace=wrap;rounded=0;" vertex="1" parent="1">
          <mxGeometry x="10" y="569" width="140" height="30" as="geometry" />
        </mxCell>
        <mxCell id="NpWbz43RdM9-YawIMZhB-67" style="edgeStyle=orthogonalEdgeStyle;rounded=0;orthogonalLoop=1;jettySize=auto;html=1;exitX=1;exitY=0.25;exitDx=0;exitDy=0;entryX=0;entryY=0;entryDx=0;entryDy=15;entryPerimeter=0;" edge="1" parent="1" source="NpWbz43RdM9-YawIMZhB-24" target="NpWbz43RdM9-YawIMZhB-6">
          <mxGeometry relative="1" as="geometry" />
        </mxCell>
        <mxCell id="NpWbz43RdM9-YawIMZhB-29" value="Model Context" style="shape=document;whiteSpace=wrap;html=1;boundedLbl=1;fillColor=#dae8fc;strokeColor=#6c8ebf;" vertex="1" parent="1">
          <mxGeometry x="230" y="455" width="120" height="80" as="geometry" />
        </mxCell>
        <mxCell id="NpWbz43RdM9-YawIMZhB-26" value="Model Context" style="shape=document;whiteSpace=wrap;html=1;boundedLbl=1;fillColor=#dae8fc;strokeColor=#6c8ebf;" vertex="1" parent="1">
          <mxGeometry x="230" y="455" width="120" height="60" as="geometry" />
        </mxCell>
        <mxCell id="NpWbz43RdM9-YawIMZhB-27" value="Model Context" style="shape=document;whiteSpace=wrap;html=1;boundedLbl=1;fillColor=#dae8fc;strokeColor=#6c8ebf;" vertex="1" parent="1">
          <mxGeometry x="230" y="455" width="120" height="40" as="geometry" />
        </mxCell>
        <mxCell id="NpWbz43RdM9-YawIMZhB-71" style="edgeStyle=orthogonalEdgeStyle;rounded=0;orthogonalLoop=1;jettySize=auto;html=1;" edge="1" parent="1" source="NpWbz43RdM9-YawIMZhB-70" target="NpWbz43RdM9-YawIMZhB-58">
          <mxGeometry relative="1" as="geometry" />
        </mxCell>
        <mxCell id="NpWbz43RdM9-YawIMZhB-126" style="edgeStyle=orthogonalEdgeStyle;rounded=0;orthogonalLoop=1;jettySize=auto;html=1;exitX=0.5;exitY=1;exitDx=0;exitDy=0;entryX=0.5;entryY=0;entryDx=0;entryDy=0;" edge="1" parent="1">
          <mxGeometry relative="1" as="geometry">
            <mxPoint x="422.75" y="599" as="sourcePoint" />
            <mxPoint x="424" y="616" as="targetPoint" />
          </mxGeometry>
        </mxCell>
        <mxCell id="NpWbz43RdM9-YawIMZhB-70" value="Tool Call Detected?" style="text;html=1;align=center;verticalAlign=middle;whiteSpace=wrap;rounded=0;" vertex="1" parent="1">
          <mxGeometry x="367.5" y="569" width="112.5" height="30" as="geometry" />
        </mxCell>
        <mxCell id="NpWbz43RdM9-YawIMZhB-77" style="edgeStyle=orthogonalEdgeStyle;rounded=0;orthogonalLoop=1;jettySize=auto;html=1;entryX=1;entryY=0.5;entryDx=0;entryDy=0;" edge="1" parent="1" source="NpWbz43RdM9-YawIMZhB-74" target="NpWbz43RdM9-YawIMZhB-53">
          <mxGeometry relative="1" as="geometry" />
        </mxCell>
        <mxCell id="NpWbz43RdM9-YawIMZhB-124" value="" style="edgeStyle=orthogonalEdgeStyle;rounded=0;orthogonalLoop=1;jettySize=auto;html=1;entryX=0.5;entryY=0;entryDx=0;entryDy=0;" edge="1" parent="1" source="NpWbz43RdM9-YawIMZhB-74" target="NpWbz43RdM9-YawIMZhB-90">
          <mxGeometry relative="1" as="geometry" />
        </mxCell>
        <mxCell id="NpWbz43RdM9-YawIMZhB-74" value="Reflect on Tool Use?" style="text;html=1;align=center;verticalAlign=middle;whiteSpace=wrap;rounded=0;" vertex="1" parent="1">
          <mxGeometry x="365.5" y="806" width="120" height="30" as="geometry" />
        </mxCell>
        <mxCell id="NpWbz43RdM9-YawIMZhB-106" value="No" style="text;html=1;align=center;verticalAlign=middle;whiteSpace=wrap;rounded=0;" vertex="1" parent="1">
          <mxGeometry x="230" y="560" width="60" height="30" as="geometry" />
        </mxCell>
        <mxCell id="NpWbz43RdM9-YawIMZhB-107" value="No" style="text;html=1;align=center;verticalAlign=middle;whiteSpace=wrap;rounded=0;" vertex="1" parent="1">
          <mxGeometry x="230" y="790" width="60" height="30" as="geometry" />
        </mxCell>
        <mxCell id="NpWbz43RdM9-YawIMZhB-110" style="edgeStyle=orthogonalEdgeStyle;rounded=0;orthogonalLoop=1;jettySize=auto;html=1;exitX=1;exitY=0.5;exitDx=0;exitDy=0;entryX=0;entryY=0;entryDx=0;entryDy=30;entryPerimeter=0;" edge="1" parent="1" source="NpWbz43RdM9-YawIMZhB-34" target="NpWbz43RdM9-YawIMZhB-11">
          <mxGeometry relative="1" as="geometry" />
        </mxCell>
        <mxCell id="NpWbz43RdM9-YawIMZhB-113" style="edgeStyle=orthogonalEdgeStyle;rounded=0;orthogonalLoop=1;jettySize=auto;html=1;entryX=1;entryY=0.5;entryDx=0;entryDy=0;" edge="1" parent="1" source="NpWbz43RdM9-YawIMZhB-111" target="NpWbz43RdM9-YawIMZhB-112">
          <mxGeometry relative="1" as="geometry" />
        </mxCell>
        <mxCell id="NpWbz43RdM9-YawIMZhB-117" style="edgeStyle=orthogonalEdgeStyle;rounded=0;orthogonalLoop=1;jettySize=auto;html=1;exitX=0.5;exitY=1;exitDx=0;exitDy=0;entryX=0.5;entryY=0;entryDx=0;entryDy=0;" edge="1" parent="1" source="NpWbz43RdM9-YawIMZhB-111" target="NpWbz43RdM9-YawIMZhB-74">
          <mxGeometry relative="1" as="geometry" />
        </mxCell>
        <mxCell id="NpWbz43RdM9-YawIMZhB-111" value="Handoff Detected?" style="text;html=1;align=center;verticalAlign=middle;whiteSpace=wrap;rounded=0;shadow=1;" vertex="1" parent="1">
          <mxGeometry x="370.75" y="754" width="110" height="30" as="geometry" />
        </mxCell>
        <mxCell id="NpWbz43RdM9-YawIMZhB-112" value="Response&lt;div&gt;(Handoff)&lt;/div&gt;" style="text;html=1;align=right;verticalAlign=middle;whiteSpace=wrap;rounded=0;" vertex="1" parent="1">
          <mxGeometry x="90" y="754" width="60" height="30" as="geometry" />
        </mxCell>
        <mxCell id="NpWbz43RdM9-YawIMZhB-115" value="Yes" style="text;html=1;align=center;verticalAlign=middle;whiteSpace=wrap;rounded=0;" vertex="1" parent="1">
          <mxGeometry x="230" y="744" width="60" height="30" as="geometry" />
        </mxCell>
        <mxCell id="NpWbz43RdM9-YawIMZhB-127" value="Assistant Agent" style="text;html=1;align=center;verticalAlign=middle;whiteSpace=wrap;rounded=0;" vertex="1" parent="1">
          <mxGeometry x="700" y="218" width="109.25" height="30" as="geometry" />
        </mxCell>
      </root>
    </mxGraphModel>
  </diagram>
</mxfile>
